<?xml version="1.0" encoding="UTF-8" standalone="no"?>
<svg width="300" height="300" viewBox="0 0 300 300" xmlns="http://www.w3.org/2000/svg">
  <!-- Background circle -->
  <circle cx="150" cy="150" r="150" fill="#FFF6E9"/>

  <!-- Bitcoin logo -->
  <circle cx="115" cy="130" r="30" fill="#F7931A"/>
  <path d="M125,115 v30 h-5 v-30 h-5 v30 h-5 v5 h22 v-5 h-2 v-30 z" fill="white"/>
  <path d="M120,115 v-5 h-5 v5 z" fill="white"/>
  <path d="M120,145 v5 h-5 v-5 z" fill="white"/>
  <path d="M130,120 h-15 v20 h15 c5,0 10,-4 10,-10 c0,-6 -5,-10 -10,-10 z" fill="white"/>

  <!-- Document/List icon -->
  <rect x="175" y="115" width="25" height="25" rx="4" ry="4" fill="none" stroke="#6C8ED4" stroke-width="2"/>
  <line x1="185" y1="123" x2="195" y2="123" stroke="#6C8ED4" stroke-width="2"/>
  <line x1="185" y1="130" x2="190" y2="130" stroke="#6C8ED4" stroke-width="2"/>

  <!-- Chart line for Dollar Cost Averaging -->
  <polyline points="70,195 95,180 120,185 145,170 170,155 195,165 220,145"
            fill="none" stroke="#6C8ED4" stroke-width="3" stroke-linecap="round" stroke-linejoin="round"/>

  <!-- Data points -->
  <circle cx="70" cy="195" r="5" fill="#F7931A" stroke="#6C8ED4" stroke-width="1.5"/>
  <circle cx="95" cy="180" r="5" fill="#F7931A" stroke="#6C8ED4" stroke-width="1.5"/>
  <circle cx="120" cy="185" r="5" fill="#F7931A" stroke="#6C8ED4" stroke-width="1.5"/>
  <circle cx="145" cy="170" r="5" fill="#F7931A" stroke="#6C8ED4" stroke-width="1.5"/>
  <circle cx="170" cy="155" r="5" fill="#F7931A" stroke="#6C8ED4" stroke-width="1.5"/>
  <circle cx="195" cy="165" r="5" fill="#F7931A" stroke="#6C8ED4" stroke-width="1.5"/>
  <circle cx="220" cy="145" r="5" fill="#F7931A" stroke="#6C8ED4" stroke-width="1.5"/>

  <!-- Text at bottom -->
  <text x="150" y="240" font-family="Arial, sans-serif" font-weight="bold" font-size="22" text-anchor="middle" fill="#333333">DCA BITCOIN BOT</text>

  <!-- Decorative elements -->
  <circle cx="70" cy="85" r="6" fill="#6C8ED4" opacity="0.7"/>
  <circle cx="235" cy="85" r="6" fill="#6C8ED4" opacity="0.7"/>
  <path d="M50,130 l10,5 l-5,12 z" fill="#6C8ED4" opacity="0.7"/>
</svg>